<mxfile host="app.diagrams.net" agent="Mozilla/5.0 (Windows NT 10.0; Win64; x64) AppleWebKit/537.36 (KHTML, like Gecko) Chrome/129.0.0.0 Safari/537.36" version="24.7.17">
  <diagram name="Página-1" id="UP_eEgsHngwach5BhS74">
    <mxGraphModel dx="794" dy="446" grid="1" gridSize="10" guides="1" tooltips="1" connect="1" arrows="1" fold="1" page="1" pageScale="1" pageWidth="827" pageHeight="1169" math="0" shadow="0">
      <root>
        <mxCell id="0" />
        <mxCell id="1" parent="0" />
        <mxCell id="5wO4j01MaXV1KKFy2ajA-18" value="" style="rounded=0;whiteSpace=wrap;html=1;" vertex="1" parent="1">
          <mxGeometry x="42" y="310" width="355" height="270" as="geometry" />
        </mxCell>
        <mxCell id="5wO4j01MaXV1KKFy2ajA-5" value="" style="whiteSpace=wrap;html=1;aspect=fixed;" vertex="1" parent="1">
          <mxGeometry x="110" y="80" width="210" height="210" as="geometry" />
        </mxCell>
        <mxCell id="5wO4j01MaXV1KKFy2ajA-6" value="PlaceholderName (applicación)" style="text;html=1;align=center;verticalAlign=middle;whiteSpace=wrap;rounded=0;" vertex="1" parent="1">
          <mxGeometry x="110" y="80" width="190" height="30" as="geometry" />
        </mxCell>
        <mxCell id="5wO4j01MaXV1KKFy2ajA-7" value="&lt;span style=&quot;font-weight: normal;&quot;&gt;File System&lt;/span&gt;" style="shape=folder;fontStyle=1;spacingTop=10;tabWidth=40;tabHeight=14;tabPosition=left;html=1;whiteSpace=wrap;" vertex="1" parent="1">
          <mxGeometry x="110" y="385" width="90" height="80" as="geometry" />
        </mxCell>
        <mxCell id="5wO4j01MaXV1KKFy2ajA-8" value="Metadata DB" style="shape=cylinder3;whiteSpace=wrap;html=1;boundedLbl=1;backgroundOutline=1;size=15;" vertex="1" parent="1">
          <mxGeometry x="282" y="390" width="75" height="80" as="geometry" />
        </mxCell>
        <mxCell id="5wO4j01MaXV1KKFy2ajA-10" value="External applications (pdf readers)" style="rounded=0;whiteSpace=wrap;html=1;" vertex="1" parent="1">
          <mxGeometry x="360" y="120" width="160" height="59" as="geometry" />
        </mxCell>
        <mxCell id="5wO4j01MaXV1KKFy2ajA-12" value="Network" style="ellipse;shape=cloud;whiteSpace=wrap;html=1;" vertex="1" parent="1">
          <mxGeometry x="85" y="480" width="120" height="80" as="geometry" />
        </mxCell>
        <mxCell id="5wO4j01MaXV1KKFy2ajA-13" value="" style="endArrow=none;html=1;rounded=0;exitX=0;exitY=0;exitDx=0;exitDy=0;exitPerimeter=0;entryX=0;entryY=1;entryDx=0;entryDy=0;" edge="1" parent="1" source="5wO4j01MaXV1KKFy2ajA-7" target="5wO4j01MaXV1KKFy2ajA-5">
          <mxGeometry width="50" height="50" relative="1" as="geometry">
            <mxPoint x="310" y="300" as="sourcePoint" />
            <mxPoint x="360" y="250" as="targetPoint" />
          </mxGeometry>
        </mxCell>
        <mxCell id="5wO4j01MaXV1KKFy2ajA-14" value="" style="endArrow=none;html=1;rounded=0;exitX=0.5;exitY=0;exitDx=0;exitDy=0;exitPerimeter=0;entryX=1;entryY=1;entryDx=0;entryDy=0;" edge="1" parent="1" source="5wO4j01MaXV1KKFy2ajA-8" target="5wO4j01MaXV1KKFy2ajA-5">
          <mxGeometry width="50" height="50" relative="1" as="geometry">
            <mxPoint x="310" y="300" as="sourcePoint" />
            <mxPoint x="270" y="290" as="targetPoint" />
          </mxGeometry>
        </mxCell>
        <mxCell id="5wO4j01MaXV1KKFy2ajA-15" value="" style="endArrow=none;html=1;rounded=0;entryX=0;entryY=0;entryDx=0;entryDy=0;" edge="1" parent="1" target="5wO4j01MaXV1KKFy2ajA-10">
          <mxGeometry width="50" height="50" relative="1" as="geometry">
            <mxPoint x="322" y="120" as="sourcePoint" />
            <mxPoint x="360" y="250" as="targetPoint" />
            <Array as="points" />
          </mxGeometry>
        </mxCell>
        <mxCell id="5wO4j01MaXV1KKFy2ajA-16" value="" style="endArrow=none;html=1;rounded=0;exitX=0.4;exitY=0.1;exitDx=0;exitDy=0;exitPerimeter=0;entryX=0.25;entryY=1;entryDx=0;entryDy=0;entryPerimeter=0;" edge="1" parent="1" source="5wO4j01MaXV1KKFy2ajA-12" target="5wO4j01MaXV1KKFy2ajA-7">
          <mxGeometry width="50" height="50" relative="1" as="geometry">
            <mxPoint x="310" y="300" as="sourcePoint" />
            <mxPoint x="360" y="250" as="targetPoint" />
          </mxGeometry>
        </mxCell>
        <mxCell id="5wO4j01MaXV1KKFy2ajA-17" value="Diagrama de Contexto" style="text;html=1;align=center;verticalAlign=middle;whiteSpace=wrap;rounded=0;" vertex="1" parent="1">
          <mxGeometry x="10" y="10" width="150" height="30" as="geometry" />
        </mxCell>
        <mxCell id="5wO4j01MaXV1KKFy2ajA-19" value="Storage" style="text;html=1;align=center;verticalAlign=middle;whiteSpace=wrap;rounded=0;" vertex="1" parent="1">
          <mxGeometry x="35" y="313" width="78" height="30" as="geometry" />
        </mxCell>
      </root>
    </mxGraphModel>
  </diagram>
</mxfile>
